<?xml version="1.0" encoding="UTF-8"?>
<svg id="Layer_1" xmlns="http://www.w3.org/2000/svg" version="1.1" viewBox="0 0 501 106">
  <!-- Generator: Adobe Illustrator 29.4.0, SVG Export Plug-In . SVG Version: 2.1.0 Build 152)  -->
  <path d="M157.19,18.79c-3.37-2.76-7.21-3.77-11.52-3.42-1.52.12-2.05.6-2.04,2.19.1,5.39.03,10.81.03,16.2h-.07v15.55c0,2.71.75,3.89,3.37,4.3,6.85,1.06,14.37-1.88,17.18-9.2,3.17-8.24-.07-19.98-6.95-25.62Z" fill="none"/>
  <path d="M267.93,50.81c.1-1.27.17-2.55.22-3.25-.03-5.65,1.06-5.03-4.61-5.36-.84-.05-1.71.03-2.55.19-3.63.65-5.96,4.32-5.02,7.81.86,3.17,3.94,4.79,8.25,4.35q3.42-.36,3.7-3.73Z" fill="none"/>
  <g>
    <path d="M202.22,49.92c.6,3.48.26,4.02-2.81,4.9-4.38,1.25-8.78,1.7-13.22.22-3.48-1.15-6.22-3.27-7.76-6.58-2.83-6.06-3.1-12.26-.07-18.32,2.76-5.5,7.59-7.69,13.53-7.59,5.33.09,9.45,2.35,11.9,7.24.29.57.51,1.18.68,1.78,1.7,6.08,1.15,6.8-5.07,6.99-4.06.12-8.1.38-12.16.39-1.82,0-1.95.84-1.76,2.26,1.06,7.77,6.9,11.52,14.52,9.33.72-.21,1.46-.43,2.21-.63ZM190.94,27.03c-3.07.03-6.34,4.32-5.48,7.29.12.43,1.06.96,1.56.91,2.67-.26,5.33-.65,7.96-1.11.48-.09,1.13-.67,1.22-1.13.51-2.79-2.38-5.99-5.26-5.96Z" fill="#1c4589"/>
    <path d="M256.44,26.84c-1.54-1.35-3.2-2.52-4.69-3.41-.17-.1-.34-.21-.53-.31-6.9.5-12.21,1.71-12.21,1.71,0,0-11.44,11.01-4.28,6.68,4.2-2.53,10.65-3.6,15.31-4.06,2.26-.14,4.49-.29,6.73-.34-.12-.09-.22-.19-.33-.27Z" fill="#1c4589"/>
    <path d="M172.99,27.92c-1.66-10.93-11.13-19.86-21.87-20.28-4.37-.17-8.73-.12-13.12-.03-.33,0-.63.02-.96.02v-.02c-1.54.03-3.08.07-4.62.1h-.27c-.55.02-1.39.67-1.52,1.16-.24.89-.38,2.07,1.13,2.28,2.05.27,2.62,1.61,2.6,3.49-.05,6.54.05,13.08-.09,19.62-.1,5.03-.46,10.09-.7,15.12-.05,1.2-.55,2.09-1.51,2.45-.34.19-.75.33-1.27.39-1.51.19-1.35,1.39-1.13,2.28.12.46.82,1.01,1.35,1.13.05.02.12.05.17.05,1.95.03,3.9.07,5.86.1v-.02c.33,0,.63.02.96.02,3.53.07,7.06.15,10.58.19,15.29.17,26.7-12.96,24.4-28.07ZM163.14,41.41c-2.81,7.31-10.33,10.26-17.18,9.2-2.62-.41-3.37-1.58-3.37-4.3.02-5.19,0-10.38,0-15.55h.07c0-5.39.05-10.81-.03-16.2-.03-1.59.51-2.07,2.04-2.19,4.32-.34,8.15.65,11.52,3.42,6.88,5.63,10.12,17.38,6.95,25.62Z" fill="#1c4589"/>
    <path d="M455.59,52.76s-.02-.03-.03-.05c-.05-.07-.1-.12-.17-.17-.09-.07-.17-.14-.29-.19-.15-.09-.31-.15-.48-.19-.03-.02-.07-.03-.12-.03-2.65-.6-2.89-1.23-2.86-4.04.05-4.18.17-8.39-.24-12.55-.63-6.52-5.41-11.68-11.85-12.48-3.73-.46-7.62-.05-11.4.33-3.17.31-3.44.99-2.65,4.38,1.44-.22,2.89-.53,4.37-.65,1.56-.12,3.13-.15,4.69-.07,4.64.29,8.51,4.49,8.05,8.84-1.25-.1-2.52-.21-3.77-.31-4.13-.36-8.12.12-11.78,2.17-3.48,1.94-5.24,5-5.07,8.97.17,3.9,2.48,6.44,5.99,7.79,1.63.63,3.42,1.13,5.17,1.15,2.48.03,4.97.03,7.45.03.03,0,.07.02.1.02h13.49c.99,0,1.82-.82,1.82-1.82,0-.45-.17-.82-.41-1.13ZM435.67,51.32c-3.22-.65-5.05-2.98-4.91-5.99.14-2.98,2.4-5.6,5.39-5.96,1.68-.21,3.39,0,5.09-.05,1.06-.03,1.68.31,1.88,1.06.07.27-.03,6.39-.15,7.59-.31,3.13-.33,3.19-3.49,3.51-1.25.12-2.57.1-3.8-.15Z" fill="#1c4589"/>
    <path d="M418.21,22.68h-10.1c-.99,0-1.82.82-1.82,1.82s.82,1.82,1.82,1.82h.75c.94.39,1.22,1.28.98,2.47-.29,1.46-.58,2.93-.99,4.37-1.16,4.06-2.4,8.1-3.77,12.72-.62-1.28-6.54-14.02-9.06-19.76-.92-2.11-2.62-1.35-4.02-1.3-.74.03-1.76.79-2.11,1.49-1.28,2.62-2.26,5.38-3.48,8.01-1.7,3.72-3.78,8-5.53,11.68,0,0-2.91-10.82-4.26-15.84-.68-2.53-.57-3.17,1.61-3.85h.02c.99,0,1.82-.82,1.82-1.82s-.82-1.82-1.82-1.82h-13.49c-.09,0-.15.02-.22.05-.03,0-.07.02-.1.02h-.05l-.02.02c-.21.05-.38.12-.55.22-.02,0-.02.02-.03.02-.15.1-.27.21-.39.34-.05.07-.09.14-.14.19-.07.1-.14.19-.17.31-.09.21-.14.41-.14.65,0,.99.82,1.82,1.82,1.82h.29c1.52.72,2.16,2.14,2.6,3.85,2.04,7.91,4.2,15.81,6.18,23.72.15.58.34.99.62,1.25.45.46,1.08.51,1.97.43,1.47-.14,2.98-.19,4.44,0,.87.12,1.47-.03,1.97-.43.33-.26.62-.62.84-1.15,1.49-3.39,3.08-6.71,4.61-10.09,1.1-2.41,2.14-4.85,3.48-7.84,2.35,5.82,4.45,11.03,6.56,16.22.7,1.71,1.04,2.52,1.71,2.86h0c.48.39,1.08.55,1.92.43,1.42-.19,2.89-.14,4.32,0,.87.09,1.49.02,1.92-.43h0c.31-.48.53-1.35.98-2.84,2.29-7.76,4.35-15.6,6.47-23.43.33-1.2.8-2.16,1.87-2.59h.74c.99,0,1.82-.82,1.82-1.82,0-.96-.82-1.76-1.82-1.76Z" fill="#1c4589"/>
    <path d="M236.88,34.59c-.31.17-.62.34-.91.53-.94.6-2.52,1.63-4.09,1.63-.68,0-1.35-.19-1.97-.68-1.51,3.39-3.07,6.8-4.74,10.53-2.5-6.01-4.79-11.46-7.04-16.9-.75-1.85-.48-2.72,1.25-3.29.27-.02.51-.1.74-.24h0c.22-.12.39-.29.55-.5.05-.07.12-.15.15-.24.03-.07.07-.14.1-.22.07-.19.12-.38.12-.6s-.05-.43-.12-.63c-.26-.68-.91-1.18-1.68-1.18h-13.49c-.27,0-.51.07-.75.17-.17.09-.33.19-.46.31-.05.05-.1.12-.15.17-.09.1-.17.22-.24.34-.03.07-.07.12-.09.19-.07.19-.12.41-.12.63s.05.41.12.6c.03.07.07.14.1.21.05.1.12.19.19.27.15.21.34.38.58.5h0c.22.12.46.19.72.21h0c1.49.48,2.45,1.58,3.05,3.07,3.2,8.05,6.51,16.08,9.56,24.2.24.65.51,1.1.82,1.42h-.02s.03.02.03.03l.02.02h.02c.5.45,1.18.53,2.12.43,1.63-.15,3.3-.21,4.91,0,.92.12,1.58-.03,2.11-.43h.03s.02-.03.03-.03h.02c.27-.27.5-.63.7-1.15,2.53-6.47,5.19-12.91,7.83-19.35Z" fill="#1c4589"/>
    <g>
      <path d="M263.34,26.8c-.14-.17-.26-.36-.39-.53.12.17.26.36.39.53Z" fill="#1c4589"/>
      <path d="M264.52,28.58c-.09-.15-.17-.29-.26-.43.09.12.17.27.26.43Z" fill="#1c4589"/>
      <path d="M266.57,39.58s-.02,0-.03-.02c0,.02.02.03.03.02h0Z" fill="#1c4589"/>
      <path d="M264.26,28.14c-.31-.48-.62-.92-.92-1.34.33.45.63.87.92,1.34Z" fill="#1c4589"/>
      <path d="M277.86,51.97c.07,0,.14.03.21.03-2.36-.96-2.52-1.46-2.45-4.37.09-4.04.19-8.12-.21-12.12-.65-6.52-5.39-11.68-11.87-12.48-1.25-.15-2.53-.19-3.8-.17.6.51,1.85,1.68,3.2,3.41.14.17.27.36.39.53.31.43.62.86.92,1.34.09.14.17.29.26.43,1.23,2.04,2.31,4.54,2.71,7.4,0,0-1.9-.22-4.23-.41-4.26-.39-8.36.1-12.12,2.26-3.29,1.9-5,4.88-4.91,8.65.09,3.8,2.17,6.44,5.63,7.83,1.75.7,3.68,1.28,5.55,1.32,6.2.12,12.42.05,18.63-.03h2.09c.99,0,1.82-.82,1.82-1.82s-.8-1.78-1.82-1.78ZM267.15,44.56c-.05.7-.12,1.97-.22,3.25q-.27,3.37-3.7,3.73c-4.32.45-7.4-1.18-8.25-4.35-.82-3,.79-6.1,3.56-7.35,0,0,.02,0,.02-.02.05-.02.12-.07.19-.09.89-.45,3.61-1.49,7.33-.31.15.05.29.07.45.12t.03.02v.02c.96.43.58,1.54.6,4.97Z" fill="#1c4589"/>
      <path d="M259.74,22.86h-.05s.09.07.12.1c.62.53,1.2,1.11,1.78,1.73.48.5.92,1.03,1.35,1.58-1.35-1.73-2.62-2.89-3.2-3.41Z" fill="#1c4589"/>
    </g>
    <path d="M323.66,55.19c.45-.33.77-.84.77-1.44,0-.99-.82-1.82-1.82-1.82h-.96c-1.35-.43-1.83-1.56-1.82-3.19.05-4.13.24-8.25-.05-12.36-.58-8.24-6.51-13.77-14.8-13.82-3.63-.03-7.24.07-10.87.17h-6.64c-.99,0-1.82.82-1.82,1.82s.82,1.82,1.82,1.82h.05c1.39.65,1.9,1.76,1.85,3.46-.22,6.4-.36,12.81-.57,19.21-.05,1.58-.79,2.53-2.09,2.93h-.75c-.39,0-.72.15-1.03.36h0c-.19.14-.34.31-.48.5-.03.05-.07.09-.09.12-.05.09-.09.17-.12.27-.05.15-.1.33-.1.51,0,.02-.02.03-.02.05,0,.09.03.15.05.22,0,.03.02.07.02.1h0c.15.84.87,1.49,1.75,1.49h13.49c.99,0,1.82-.82,1.82-1.82,0-.22-.05-.41-.12-.6-.03-.09-.07-.15-.1-.22-.05-.09-.1-.17-.17-.24-.33-.45-.84-.75-1.42-.75h-.36c-1.23-.43-1.58-1.52-1.56-2.96.05-3.13.31-15.51.34-18.58.03-2.98,1.04-3.85,4.09-3.63,4.85.36,8.8,4.25,9.09,9.42.26,4.4.05,8.82-.02,13.24-.02,1.22-.55,2.16-1.64,2.48h-.33c-.34,0-.65.12-.92.29h0c-.21.12-.38.29-.53.5-.05.07-.1.14-.14.22-.03.07-.07.14-.1.22-.07.19-.12.38-.12.6,0,.99.82,1.82,1.82,1.82h13.49c.21,0,.41-.05.58-.12.07-.02.14-.05.21-.09.14-.05.22-.12.31-.19Z" fill="#1c4589"/>
    <g>
      <path d="M359.47,24.44c0-.98-.79-1.76-1.76-1.76h-14.32c-.09,0-.17-.03-.26-.03-2.28-.36-4.57-.27-6.92.43-6.97,2.11-10.87,9.35-8.31,15.63,1.18,2.91,3.51,4.73,6.46,6.16-2.35,2.28-2.62,4.61-.24,6.76-1.54.94-2.93,1.61-4.09,2.53-5.43,4.35-4.49,10.55,1.97,13.13,3.75,1.49,7.67,1.94,11.63,1.54,4.04-.39,7.95-1.37,11.08-4.08.33-.27.65-.55.96-.87,2.86-2.95,2.93-6.92.12-9.88-.26-.27-.53-.55-.8-.8-.99-.82-2.19-1.51-3.54-2.04-.89-.27-1.8-.53-2.72-.77-2.24-.58-4.54-1.1-6.8-1.63-1.44-.34-3.58-.29-3.41-2.91,1.49.07,2.83.19,4.09,0,6.66-.91,11.01-4.86,11.44-10.87.02-.12.02-.26.02-.38,0-.15.02-.31.02-.46,0-.07,0-.12-.02-.17,0-.24-.02-.5-.03-.74-.02-.19-.03-.36-.05-.55-.02-.15-.05-.29-.07-.45-.07-.39-.17-.79-.29-1.16-.19-.7-.43-1.39-.74-2.04-.53-1.06-1.23-2.02-2.05-2.88h6.88c.98.03,1.76-.77,1.76-1.73ZM342.42,54.32c3.96,0,7.16,2.4,7.16,5.38s-3.2,5.38-7.16,5.38-7.16-2.4-7.16-5.38c0-2.96,3.2-5.38,7.16-5.38ZM343.58,41.73c-1.94.74-3.51-.34-4.76-1.75-2.64-2.98-3.97-6.47-3.48-10.46.45-3.54,3.19-4.61,5.92-2.26,3,2.59,4.25,6.03,4.44,9.61-.03,2.14-.09,4.09-2.12,4.86Z" fill="#1c4589"/>
      <path d="M348.7,50.42c.91.24,1.82.5,2.72.77-.86-.33-1.76-.58-2.72-.77Z" fill="#1c4589"/>
      <path d="M355.65,63.89c-.31.33-.63.6-.96.87,2-1.56,3.24-3.61,3.24-5.87s-1.13-4.14-2.98-5.67c.29.26.55.53.8.8,2.83,2.96,2.74,6.94-.1,9.86Z" fill="#1c4589"/>
    </g>
    <g>
      <path d="M73.54,4.27c-1.44,0-2.84.14-4.23.33.82,1.15,1.34,2.55,1.34,4.08,0,3.6-2.72,6.52-6.22,6.94h10.93c7.74,0,14.02,6.27,14.02,14.02h-15.81v18.43c0,6.99-4.21,12.98-10.22,15.6,3.19,1.13,6.61,1.78,10.19,1.78,16.88,0,30.58-13.68,30.58-30.58s-13.7-30.58-30.58-30.58Z" fill="#1c4589"/>
      <path d="M56.43,22.44c0-3.68,2.96-6.7,6.61-6.82-3.37-.27-6.06-2.93-6.39-6.28-8.27,5.48-13.72,14.85-13.72,25.5s5.34,19.86,13.48,25.36V22.44h.02Z" fill="#119b8e"/>
    </g>
  </g>
  <path d="M443.99,43.33" fill="#1c4589"/>
  <g isolation="isolate">
    <path d="M132.24,77.21c0-1.74.31-3.48.92-5.2.61-1.73,1.5-3.27,2.67-4.63,1.17-1.36,2.61-2.47,4.33-3.33s3.66-1.29,5.84-1.29c2.58,0,4.8.59,6.63,1.76,1.84,1.17,3.19,2.69,4.06,4.57l-2.24,1.39c-.46-.95-1.03-1.75-1.69-2.41-.67-.65-1.38-1.18-2.14-1.59-.76-.41-1.55-.7-2.37-.88-.82-.18-1.62-.26-2.41-.26-1.74,0-3.28.35-4.61,1.06-1.33.71-2.46,1.63-3.37,2.78-.91,1.14-1.6,2.43-2.06,3.86-.46,1.43-.69,2.88-.69,4.35,0,1.61.28,3.14.84,4.61.56,1.47,1.32,2.77,2.29,3.9.97,1.13,2.11,2.03,3.43,2.69,1.32.67,2.75,1,4.31,1,.82,0,1.65-.1,2.51-.31.86-.2,1.69-.53,2.49-.98.8-.45,1.54-1.01,2.22-1.67s1.25-1.48,1.71-2.43l2.37,1.22c-.46,1.09-1.12,2.05-1.96,2.88-.84.83-1.78,1.53-2.82,2.1-1.03.57-2.13,1.01-3.29,1.31-1.16.3-2.29.45-3.41.45-1.99,0-3.81-.44-5.47-1.31-1.66-.87-3.09-2.01-4.29-3.41-1.2-1.4-2.13-2.99-2.8-4.78-.67-1.78-1-3.6-1-5.45Z" fill="#119b8e"/>
    <path d="M170.64,92.31c-1.55,0-2.97-.29-4.24-.88-1.28-.58-2.39-1.38-3.33-2.39-.94-1.01-1.67-2.18-2.18-3.51-.52-1.33-.78-2.73-.78-4.2s.27-2.91.8-4.25c.53-1.33,1.27-2.5,2.2-3.51.94-1.01,2.05-1.81,3.33-2.41,1.28-.6,2.68-.9,4.2-.9s2.93.3,4.22.9c1.29.6,2.41,1.4,3.35,2.41.94,1.01,1.67,2.18,2.2,3.51.53,1.33.8,2.75.8,4.25s-.26,2.87-.78,4.2c-.52,1.33-1.25,2.5-2.18,3.51-.94,1.01-2.06,1.8-3.35,2.39-1.29.58-2.71.88-4.27.88ZM162.93,81.37c0,1.2.2,2.31.61,3.33.41,1.02.96,1.92,1.65,2.69s1.51,1.38,2.45,1.82c.94.44,1.94.65,3,.65s2.06-.22,3-.67c.94-.45,1.76-1.06,2.47-1.84.71-.78,1.27-1.68,1.67-2.71s.61-2.15.61-3.35-.2-2.28-.61-3.33c-.41-1.05-.97-1.96-1.67-2.73-.71-.78-1.53-1.39-2.47-1.84s-1.94-.67-3-.67-2.05.22-2.98.67c-.93.45-1.74,1.07-2.45,1.86-.71.79-1.27,1.71-1.67,2.75-.41,1.05-.61,2.17-.61,3.37Z" fill="#119b8e"/>
    <path d="M191.21,92.31c-1.01,0-1.94-.17-2.8-.51-.86-.34-1.61-.81-2.25-1.41-.64-.6-1.14-1.3-1.49-2.1-.35-.8-.53-1.67-.53-2.59s.22-1.78.65-2.57c.44-.79,1.05-1.47,1.84-2.04.79-.57,1.73-1.01,2.82-1.33,1.09-.31,2.29-.47,3.59-.47,1.09,0,2.19.1,3.31.29,1.12.19,2.11.46,2.98.82v-1.92c0-1.88-.53-3.37-1.59-4.47-1.06-1.1-2.53-1.65-4.41-1.65-1.09,0-2.2.22-3.35.65-1.14.44-2.3,1.06-3.47,1.88l-.98-1.84c2.75-1.85,5.41-2.78,8-2.78s4.76.75,6.29,2.24c1.52,1.5,2.29,3.57,2.29,6.2v9.59c0,.76.34,1.14,1.02,1.14v2.45c-.46.08-.82.12-1.06.12-.71,0-1.26-.18-1.65-.53-.4-.35-.61-.84-.63-1.47l-.08-1.67c-.98,1.28-2.21,2.26-3.69,2.94-1.48.68-3.08,1.02-4.8,1.02ZM191.87,90.18c1.44,0,2.77-.27,3.98-.82,1.21-.54,2.13-1.27,2.75-2.16.25-.25.43-.51.55-.8.12-.29.18-.55.18-.8v-3.47c-.93-.35-1.88-.63-2.88-.82-.99-.19-2.01-.29-3.04-.29-1.96,0-3.55.41-4.78,1.22-1.22.82-1.84,1.89-1.84,3.22,0,.65.13,1.27.39,1.84.26.57.61,1.07,1.06,1.49.45.42.99.76,1.61,1,.63.25,1.29.37,2,.37Z" fill="#119b8e"/>
    <path d="M206.64,81.21c0-1.5.26-2.91.78-4.25.52-1.33,1.25-2.5,2.18-3.49.94-.99,2.06-1.78,3.37-2.35,1.31-.57,2.75-.86,4.33-.86,2.01,0,3.77.46,5.27,1.37,1.5.91,2.63,2.14,3.39,3.69l-2.69.86c-.6-1.09-1.44-1.94-2.51-2.55-1.08-.61-2.27-.92-3.57-.92-1.09,0-2.1.22-3.04.65-.94.44-1.76,1.03-2.45,1.78-.69.75-1.24,1.64-1.63,2.67-.4,1.03-.59,2.16-.59,3.39s.2,2.33.61,3.39c.41,1.06.97,1.98,1.67,2.75.71.78,1.53,1.39,2.47,1.84.94.45,1.94.67,3,.67.68,0,1.35-.09,2.02-.29.67-.19,1.29-.46,1.86-.8.57-.34,1.06-.73,1.47-1.16s.69-.9.86-1.39l2.73.82c-.3.76-.73,1.46-1.31,2.1s-1.24,1.2-2.02,1.67c-.78.48-1.63.84-2.57,1.1-.94.26-1.91.39-2.92.39-1.55,0-2.98-.29-4.29-.88-1.31-.58-2.44-1.39-3.39-2.41-.95-1.02-1.69-2.2-2.22-3.53-.53-1.33-.8-2.76-.8-4.29Z" fill="#119b8e"/>
    <path d="M248.4,91.9h-2.78v-11.88c0-2.42-.42-4.23-1.24-5.43-.83-1.2-2.05-1.8-3.65-1.8-.79,0-1.57.16-2.35.47s-1.5.74-2.18,1.29c-.68.54-1.27,1.18-1.78,1.92-.5.73-.88,1.54-1.12,2.41v13.02h-2.78v-29.79h2.78v13.35c.84-1.61,2.01-2.87,3.51-3.8,1.5-.92,3.12-1.39,4.86-1.39,1.22,0,2.26.22,3.1.67.84.45,1.54,1.08,2.08,1.88.54.8.94,1.77,1.18,2.9.25,1.13.37,2.38.37,3.74v12.45Z" fill="#119b8e"/>
    <path d="M254.32,66.18v-4.08h2.78v4.08h-2.78ZM254.32,91.9v-21.26h2.78v21.26h-2.78Z" fill="#119b8e"/>
    <path d="M281.09,91.9h-2.78v-11.88c0-2.53-.38-4.37-1.12-5.51-.75-1.14-1.9-1.71-3.45-1.71-.82,0-1.63.15-2.45.45s-1.57.72-2.27,1.26c-.69.54-1.31,1.19-1.86,1.94-.54.75-.94,1.56-1.18,2.43v13.02h-2.78v-21.26h2.53v4.82c.87-1.55,2.12-2.8,3.73-3.75s3.38-1.43,5.29-1.43c1.17,0,2.16.22,2.98.65.82.44,1.47,1.05,1.96,1.84.49.79.84,1.75,1.06,2.9.22,1.14.33,2.41.33,3.8v12.45Z" fill="#119b8e"/>
    <path d="M295.54,92.18c-1.47,0-2.81-.31-4.02-.92-1.21-.61-2.26-1.42-3.14-2.43-.88-1.01-1.57-2.16-2.06-3.47-.49-1.31-.73-2.65-.73-4.04,0-1.47.24-2.88.71-4.22.48-1.35,1.15-2.52,2.02-3.53.87-1.01,1.91-1.81,3.12-2.41,1.21-.6,2.55-.9,4.02-.9,1.82,0,3.4.46,4.73,1.37,1.33.91,2.48,2.06,3.43,3.45v-4.45h2.49v21.35c0,1.47-.28,2.77-.84,3.9-.56,1.13-1.31,2.07-2.25,2.84-.94.76-2.04,1.33-3.31,1.71-1.27.38-2.61.57-4.02.57-2.45,0-4.42-.44-5.92-1.31-1.5-.87-2.71-2.04-3.63-3.51l1.71-1.35c.84,1.36,1.96,2.36,3.35,3,1.39.64,2.88.96,4.49.96,1.03,0,2.01-.14,2.94-.43.92-.29,1.73-.71,2.43-1.26.69-.56,1.25-1.27,1.65-2.12.41-.86.61-1.86.61-3v-4.2c-.82,1.36-1.93,2.44-3.35,3.22s-2.9,1.18-4.45,1.18ZM296.31,89.86c.82,0,1.62-.15,2.41-.45.79-.3,1.5-.7,2.14-1.2.64-.5,1.18-1.07,1.61-1.69.43-.63.72-1.27.86-1.92v-6.57c-.3-.76-.71-1.47-1.22-2.12-.52-.65-1.1-1.21-1.75-1.67-.65-.46-1.35-.83-2.1-1.1-.75-.27-1.5-.41-2.27-.41-1.2,0-2.26.25-3.2.76-.94.5-1.74,1.16-2.39,1.98-.65.82-1.15,1.74-1.49,2.78-.34,1.03-.51,2.08-.51,3.14,0,1.14.2,2.23.61,3.27s.97,1.94,1.69,2.71c.72.78,1.56,1.39,2.51,1.84.95.45,1.99.67,3.1.67Z" fill="#119b8e"/>
  </g>
</svg>