<?xml version="1.0" encoding="utf-8"?>
<!-- Generator: Adobe Illustrator 24.2.0, SVG Export Plug-In . SVG Version: 6.00 Build 0)  -->
<svg version="1.1" id="Layer_1" xmlns="http://www.w3.org/2000/svg" xmlns:xlink="http://www.w3.org/1999/xlink" x="0px" y="0px"
	 viewBox="0 0 283.48 90.98" style="enable-background:new 0 0 283.48 90.98;" xml:space="preserve">
<style type="text/css">
	.st0{fill:none;}
	.st1{fill:#1C4589;}
	.st2{fill:#119B8E;}
	.st3{font-family:'Raleway-Regular';}
	.st4{font-size:23.8349px;}
</style>
<g>
	<path class="st0" d="M87.63,25.59c-1.97-1.61-4.21-2.2-6.73-2c-0.89,0.07-1.2,0.35-1.19,1.28c0.06,3.15,0.02,6.31,0.02,9.46
		c-0.01,0-0.03,0-0.04,0c0,3.03,0,6.06,0,9.08c0,1.58,0.44,2.27,1.97,2.51c4,0.62,8.39-1.1,10.03-5.37
		C93.54,35.74,91.65,28.88,87.63,25.59z"/>
	<path class="st0" d="M152.3,44.29c0.06-0.74,0.1-1.49,0.13-1.9c-0.02-3.3,0.62-2.94-2.69-3.13c-0.49-0.03-1,0.02-1.49,0.11
		c-2.12,0.38-3.48,2.52-2.93,4.56c0.5,1.85,2.3,2.8,4.82,2.54C152.14,46.26,152.14,46.26,152.3,44.29z"/>
	<g>
		<path class="st1" d="M114.51,45.52c0.35,2.03,0.15,2.35-1.64,2.86c-2.56,0.73-5.13,0.99-7.72,0.13c-2.03-0.67-3.63-1.91-4.53-3.84
			c-1.65-3.54-1.81-7.16-0.04-10.7c1.61-3.21,4.43-4.49,7.9-4.43c3.11,0.05,5.52,1.37,6.95,4.23c0.17,0.33,0.3,0.69,0.4,1.04
			c0.99,3.55,0.67,3.97-2.96,4.08c-2.37,0.07-4.73,0.22-7.1,0.23c-1.06,0-1.14,0.49-1.03,1.32c0.62,4.54,4.03,6.73,8.48,5.45
			C113.64,45.77,114.07,45.64,114.51,45.52z M107.92,32.15c-1.79,0.02-3.7,2.52-3.2,4.26c0.07,0.25,0.62,0.56,0.91,0.53
			c1.56-0.15,3.11-0.38,4.65-0.65c0.28-0.05,0.66-0.39,0.71-0.66C111.29,34,109.6,32.13,107.92,32.15z"/>
		<path class="st1" d="M146.17,32.04c-0.9-0.79-1.87-1.47-2.74-1.99c-0.1-0.06-0.2-0.12-0.31-0.18c-4.03,0.29-7.13,1-7.13,1
			s-6.68,6.43-2.5,3.9c2.45-1.48,6.22-2.1,8.94-2.37c1.32-0.08,2.62-0.17,3.93-0.2C146.29,32.15,146.23,32.09,146.17,32.04z"/>
		<path class="st1" d="M97.44,32.67c-0.97-6.38-6.5-11.6-12.77-11.84c-2.55-0.1-5.1-0.07-7.66-0.02c-0.19,0-0.37,0.01-0.56,0.01
			v-0.01c-0.9,0.02-1.8,0.04-2.7,0.06c-0.05,0-0.11,0-0.16,0c0,0,0,0,0,0c-0.32,0.01-0.81,0.39-0.89,0.68
			c-0.14,0.52-0.22,1.21,0.66,1.33c1.2,0.16,1.53,0.94,1.52,2.04c-0.03,3.82,0.03,7.64-0.05,11.46c-0.06,2.94-0.27,5.89-0.41,8.83
			c-0.03,0.7-0.32,1.22-0.88,1.43c-0.2,0.11-0.44,0.19-0.74,0.23c-0.88,0.11-0.79,0.81-0.66,1.33c0.07,0.27,0.48,0.59,0.79,0.66
			c0.03,0.01,0.07,0.03,0.1,0.03c1.14,0.02,2.28,0.04,3.42,0.06v-0.01c0.19,0,0.37,0.01,0.56,0.01c2.06,0.04,4.12,0.09,6.18,0.11
			C92.12,49.16,98.78,41.49,97.44,32.67z M91.69,40.55c-1.64,4.27-6.03,5.99-10.03,5.37c-1.53-0.24-1.97-0.92-1.97-2.51
			c0.01-3.03,0-6.06,0-9.08c0.01,0,0.03,0,0.04,0c0-3.15,0.03-6.31-0.02-9.46c-0.02-0.93,0.3-1.21,1.19-1.28
			c2.52-0.2,4.76,0.38,6.73,2C91.65,28.88,93.54,35.74,91.69,40.55z"/>
		<path class="st1" d="M262.47,47.18c-0.01-0.01-0.01-0.02-0.02-0.03c-0.03-0.04-0.06-0.07-0.1-0.1c-0.05-0.04-0.1-0.08-0.17-0.11
			c-0.09-0.05-0.18-0.09-0.28-0.11c-0.02-0.01-0.04-0.02-0.07-0.02c-1.55-0.35-1.69-0.72-1.67-2.36c0.03-2.44,0.1-4.9-0.14-7.33
			c-0.37-3.81-3.16-6.82-6.92-7.29c-2.18-0.27-4.45-0.03-6.66,0.19c-1.85,0.18-2.01,0.58-1.55,2.56c0.84-0.13,1.69-0.31,2.55-0.38
			c0.91-0.07,1.83-0.09,2.74-0.04c2.71,0.17,4.97,2.62,4.7,5.16c-0.73-0.06-1.47-0.12-2.2-0.18c-2.41-0.21-4.74,0.07-6.88,1.27
			c-2.03,1.13-3.06,2.92-2.96,5.24c0.1,2.28,1.45,3.76,3.5,4.55c0.95,0.37,2,0.66,3.02,0.67c1.45,0.02,2.9,0.02,4.35,0.02
			c0.02,0,0.04,0.01,0.06,0.01h7.88c0.58,0,1.06-0.48,1.06-1.06C262.71,47.58,262.61,47.36,262.47,47.18z M250.84,46.34
			c-1.88-0.38-2.95-1.74-2.87-3.5c0.08-1.74,1.4-3.27,3.15-3.48c0.98-0.12,1.98,0,2.97-0.03c0.62-0.02,0.98,0.18,1.1,0.62
			c0.04,0.16-0.02,3.73-0.09,4.43c-0.18,1.83-0.19,1.86-2.04,2.05C252.33,46.5,251.56,46.49,250.84,46.34z"/>
		<path class="st1" d="M240.64,29.61h-5.9c-0.58,0-1.06,0.48-1.06,1.06c0,0.58,0.48,1.06,1.06,1.06h0.44
			c0.55,0.23,0.71,0.75,0.57,1.44c-0.17,0.85-0.34,1.71-0.58,2.55c-0.68,2.37-1.4,4.73-2.2,7.43c-0.36-0.75-3.82-8.19-5.29-11.54
			c-0.54-1.23-1.53-0.79-2.35-0.76c-0.43,0.02-1.03,0.46-1.23,0.87c-0.75,1.53-1.32,3.14-2.03,4.68c-0.99,2.17-2.21,4.67-3.23,6.82
			c0,0-1.7-6.32-2.49-9.25c-0.4-1.48-0.33-1.85,0.94-2.25h0.01c0.58,0,1.06-0.48,1.06-1.06s-0.48-1.06-1.06-1.06h-7.88
			c-0.05,0-0.09,0.01-0.13,0.03c-0.02,0-0.04,0.01-0.06,0.01c-0.01,0-0.02,0-0.03,0c0,0-0.01,0.01-0.01,0.01
			c-0.12,0.03-0.22,0.07-0.32,0.13c-0.01,0-0.01,0.01-0.02,0.01c-0.09,0.06-0.16,0.12-0.23,0.2c-0.03,0.04-0.05,0.08-0.08,0.11
			c-0.04,0.06-0.08,0.11-0.1,0.18c-0.05,0.12-0.08,0.24-0.08,0.38c0,0.58,0.48,1.06,1.06,1.06h0.17c0.89,0.42,1.26,1.25,1.52,2.25
			c1.19,4.62,2.45,9.23,3.61,13.85c0.09,0.34,0.2,0.58,0.36,0.73c0.26,0.27,0.63,0.3,1.15,0.25c0.86-0.08,1.74-0.11,2.59,0
			c0.51,0.07,0.86-0.02,1.15-0.25c0.19-0.15,0.36-0.36,0.49-0.67c0.87-1.98,1.8-3.92,2.69-5.89c0.64-1.41,1.25-2.83,2.03-4.58
			c1.37,3.4,2.6,6.44,3.83,9.47c0.41,1,0.61,1.47,1,1.67h0c0.28,0.23,0.63,0.32,1.12,0.25c0.83-0.11,1.69-0.08,2.52,0
			c0.51,0.05,0.87,0.01,1.12-0.25h0c0.18-0.28,0.31-0.79,0.57-1.66c1.34-4.53,2.54-9.11,3.78-13.68c0.19-0.7,0.47-1.26,1.09-1.51
			h0.43c0.58,0,1.06-0.48,1.06-1.06C241.7,30.08,241.22,29.61,240.64,29.61z"/>
		<path class="st1" d="M134.75,36.57c-0.18,0.1-0.36,0.2-0.53,0.31c-0.55,0.35-1.47,0.95-2.39,0.95c-0.4,0-0.79-0.11-1.15-0.4
			c-0.88,1.98-1.79,3.97-2.77,6.15c-1.46-3.51-2.8-6.69-4.11-9.87c-0.44-1.08-0.28-1.59,0.73-1.92c0.16-0.01,0.3-0.06,0.43-0.14h0
			l0,0c0.13-0.07,0.23-0.17,0.32-0.29c0.03-0.04,0.07-0.09,0.09-0.14c0.02-0.04,0.04-0.08,0.06-0.13c0.04-0.11,0.07-0.22,0.07-0.35
			c0-0.13-0.03-0.25-0.07-0.37c-0.15-0.4-0.53-0.69-0.98-0.69h-7.88c-0.16,0-0.3,0.04-0.44,0.1c-0.1,0.05-0.19,0.11-0.27,0.18
			c-0.03,0.03-0.06,0.07-0.09,0.1c-0.05,0.06-0.1,0.13-0.14,0.2c-0.02,0.04-0.04,0.07-0.05,0.11c-0.04,0.11-0.07,0.24-0.07,0.37
			c0,0.13,0.03,0.24,0.07,0.35c0.02,0.04,0.04,0.08,0.06,0.12c0.03,0.06,0.07,0.11,0.11,0.16c0.09,0.12,0.2,0.22,0.34,0.29
			c0,0,0,0,0,0h0c0.13,0.07,0.27,0.11,0.42,0.12c0,0,0,0,0,0c0.87,0.28,1.43,0.92,1.78,1.79c1.87,4.7,3.8,9.39,5.58,14.13
			c0.14,0.38,0.3,0.64,0.48,0.83h-0.01c0.01,0.01,0.02,0.01,0.02,0.02c0,0,0.01,0.01,0.01,0.01h0.01c0.29,0.26,0.69,0.31,1.24,0.25
			c0.95-0.09,1.93-0.12,2.87,0c0.54,0.07,0.92-0.02,1.23-0.25h0.02c0.01-0.01,0.01-0.02,0.02-0.02c0,0,0,0,0.01,0h0
			c0.16-0.16,0.29-0.37,0.41-0.67C131.66,44.09,133.21,40.33,134.75,36.57z"/>
		<g>
			<path class="st1" d="M150.2,32.02c-0.08-0.1-0.15-0.21-0.23-0.31C150.04,31.81,150.12,31.92,150.2,32.02z"/>
			<path class="st1" d="M150.89,33.06c-0.05-0.09-0.1-0.17-0.15-0.25C150.79,32.88,150.84,32.97,150.89,33.06z"/>
			<path class="st1" d="M152.09,39.48c-0.01,0-0.01,0-0.02-0.01C152.07,39.48,152.08,39.49,152.09,39.48L152.09,39.48z"/>
			<path class="st1" d="M150.74,32.8c-0.18-0.28-0.36-0.54-0.54-0.78C150.39,32.28,150.57,32.53,150.74,32.8z"/>
			<path class="st1" d="M158.68,46.72c0.04,0,0.08,0.02,0.12,0.02c-1.38-0.56-1.47-0.85-1.43-2.55c0.05-2.36,0.11-4.74-0.12-7.08
				c-0.38-3.81-3.15-6.82-6.93-7.29c-0.73-0.09-1.48-0.11-2.22-0.1c0.35,0.3,1.08,0.98,1.87,1.99c0.08,0.1,0.16,0.21,0.23,0.31
				c0.18,0.25,0.36,0.5,0.54,0.78c0.05,0.08,0.1,0.17,0.15,0.25c0.72,1.19,1.35,2.65,1.58,4.32c0,0-1.11-0.13-2.47-0.24
				c-2.49-0.23-4.88,0.06-7.08,1.32c-1.92,1.11-2.92,2.85-2.87,5.05c0.05,2.22,1.27,3.76,3.29,4.57c1.02,0.41,2.15,0.75,3.24,0.77
				c3.62,0.07,7.25,0.03,10.88-0.02l0,0h1.22c0.58,0,1.06-0.48,1.06-1.06S159.27,46.72,158.68,46.72z M152.43,42.39
				c-0.03,0.41-0.07,1.15-0.13,1.9c-0.16,1.97-0.16,1.97-2.16,2.18c-2.52,0.26-4.32-0.69-4.82-2.54c-0.48-1.75,0.46-3.56,2.08-4.29
				c0,0,0.01,0,0.01-0.01c0.03-0.01,0.07-0.04,0.11-0.05c0.52-0.26,2.11-0.87,4.28-0.18c0.09,0.03,0.17,0.04,0.26,0.07
				c0.01,0,0.01,0,0.02,0.01l0,0.01C152.64,39.74,152.42,40.39,152.43,42.39z"/>
			<path class="st1" d="M148.1,29.72c-0.01,0-0.02,0-0.03,0c0.02,0.02,0.05,0.04,0.07,0.06c0.36,0.31,0.7,0.65,1.04,1.01
				c0.28,0.29,0.54,0.6,0.79,0.92C149.18,30.7,148.44,30.02,148.1,29.72z"/>
		</g>
		<path class="st1" d="M185.43,48.6c0.26-0.19,0.45-0.49,0.45-0.84c0-0.58-0.48-1.06-1.06-1.06h-0.56h0
			c-0.79-0.25-1.07-0.91-1.06-1.86c0.03-2.41,0.14-4.82-0.03-7.22c-0.34-4.81-3.8-8.04-8.64-8.07c-2.12-0.02-4.23,0.04-6.35,0.1
			h-3.88c-0.58,0-1.06,0.48-1.06,1.06s0.48,1.06,1.06,1.06h0.03c0.81,0.38,1.11,1.03,1.08,2.02c-0.13,3.74-0.21,7.48-0.33,11.22
			c-0.03,0.92-0.46,1.48-1.22,1.71h-0.44c-0.23,0-0.42,0.09-0.6,0.21h0l0,0c-0.11,0.08-0.2,0.18-0.28,0.29
			c-0.02,0.03-0.04,0.05-0.05,0.07c-0.03,0.05-0.05,0.1-0.07,0.16c-0.03,0.09-0.06,0.19-0.06,0.3c0,0.01-0.01,0.02-0.01,0.03
			c0,0.05,0.02,0.09,0.03,0.13c0,0.02,0.01,0.04,0.01,0.06l0,0c0.09,0.49,0.51,0.87,1.02,0.87h2.21c0,0,0,0,0.01,0h5.66
			c0.58,0,1.06-0.48,1.06-1.06c0-0.13-0.03-0.24-0.07-0.35c-0.02-0.05-0.04-0.09-0.06-0.13c-0.03-0.05-0.06-0.1-0.1-0.14
			c-0.19-0.26-0.49-0.44-0.83-0.44h-0.21c-0.72-0.25-0.92-0.89-0.91-1.73c0.03-1.83,0.18-9.06,0.2-10.85
			c0.02-1.74,0.61-2.25,2.39-2.12c2.83,0.21,5.14,2.48,5.31,5.5c0.15,2.57,0.03,5.15-0.01,7.73c-0.01,0.71-0.32,1.26-0.96,1.45h0
			h-0.19c-0.2,0-0.38,0.07-0.54,0.17h0l0,0c-0.12,0.07-0.22,0.17-0.31,0.29c-0.03,0.04-0.06,0.08-0.08,0.13
			c-0.02,0.04-0.04,0.08-0.06,0.13c-0.04,0.11-0.07,0.22-0.07,0.35c0,0.58,0.48,1.06,1.06,1.06h7.88c0.12,0,0.24-0.03,0.34-0.07
			c0.04-0.01,0.08-0.03,0.12-0.05C185.33,48.68,185.38,48.64,185.43,48.6z"/>
		<g>
			<path class="st1" d="M206.34,30.64c0-0.57-0.46-1.03-1.03-1.03h-8.36c-0.05,0-0.1-0.02-0.15-0.02c-1.33-0.21-2.67-0.16-4.04,0.25
				c-4.07,1.23-6.35,5.46-4.85,9.13c0.69,1.7,2.05,2.76,3.77,3.6c-1.37,1.33-1.53,2.69-0.14,3.95c-0.9,0.55-1.71,0.94-2.39,1.48
				c-3.17,2.54-2.62,6.16,1.15,7.67c2.19,0.87,4.48,1.13,6.79,0.9c2.36-0.23,4.64-0.8,6.47-2.38c0.19-0.16,0.38-0.32,0.56-0.51
				c1.67-1.72,1.71-4.04,0.07-5.77c-0.15-0.16-0.31-0.32-0.47-0.47c-0.58-0.48-1.28-0.88-2.07-1.19c-0.52-0.16-1.05-0.31-1.59-0.45
				c-1.31-0.34-2.65-0.64-3.97-0.95c-0.84-0.2-2.09-0.17-1.99-1.7c0.87,0.04,1.65,0.11,2.39,0c3.89-0.53,6.43-2.84,6.68-6.35
				c0.01-0.07,0.01-0.15,0.01-0.22c0-0.09,0.01-0.18,0.01-0.27c0-0.04,0-0.07-0.01-0.1c0-0.14-0.01-0.29-0.02-0.43
				c-0.01-0.11-0.02-0.21-0.03-0.32c-0.01-0.09-0.03-0.17-0.04-0.26c-0.04-0.23-0.1-0.46-0.17-0.68c-0.11-0.41-0.25-0.81-0.43-1.19
				c-0.31-0.62-0.72-1.18-1.2-1.68h4.02C205.88,31.67,206.34,31.2,206.34,30.64z M196.38,48.09c2.31,0,4.18,1.4,4.18,3.14
				c0,1.73-1.87,3.14-4.18,3.14s-4.18-1.4-4.18-3.14C192.2,49.5,194.07,48.09,196.38,48.09z M197.06,40.74
				c-1.13,0.43-2.05-0.2-2.78-1.02c-1.54-1.74-2.32-3.78-2.03-6.11c0.26-2.07,1.86-2.69,3.46-1.32c1.75,1.51,2.48,3.52,2.59,5.61
				C198.28,39.15,198.25,40.29,197.06,40.74z"/>
			<path class="st1" d="M200.05,45.81c0.53,0.14,1.06,0.29,1.59,0.45C201.14,46.07,200.61,45.92,200.05,45.81z"/>
			<path class="st1" d="M204.11,53.68c-0.18,0.19-0.37,0.35-0.56,0.51c1.17-0.91,1.89-2.11,1.89-3.43c0-1.26-0.66-2.42-1.74-3.31
				c0.17,0.15,0.32,0.31,0.47,0.47C205.82,49.65,205.77,51.97,204.11,53.68z"/>
		</g>
		<g>
			<path class="st1" d="M38.78,17.11c-0.84,0-1.66,0.08-2.47,0.19c0.48,0.67,0.78,1.49,0.78,2.38c0,2.1-1.59,3.81-3.63,4.05h1.08
				h5.3c4.52,0,8.19,3.66,8.19,8.19H38.8v10.76c0,4.08-2.46,7.58-5.97,9.11c1.86,0.66,3.86,1.04,5.95,1.04
				c9.86,0,17.86-7.99,17.86-17.86C56.64,25.1,48.64,17.11,38.78,17.11z"/>
			<path class="st2" d="M28.79,27.72c0-2.15,1.73-3.91,3.86-3.98c-1.97-0.16-3.54-1.71-3.73-3.67c-4.83,3.2-8.01,8.67-8.01,14.89
				c0,6.16,3.12,11.6,7.87,14.81V32.75V27.72z"/>
		</g>
	</g>
	<path class="st1" d="M255.11,39.92"/>
	<g>
		<text transform="matrix(1 0 0 1 72.0574 73.5378)" class="st2 st3 st4">Coaching</text>
	</g>
</g>
</svg>
