<?xml version="1.0" encoding="utf-8"?>
<!-- Generator: Adobe Illustrator 24.2.0, SVG Export Plug-In . SVG Version: 6.00 Build 0)  -->
<svg version="1.1" id="Layer_1" xmlns="http://www.w3.org/2000/svg" xmlns:xlink="http://www.w3.org/1999/xlink" x="0px" y="0px"
	 viewBox="0 0 35.71 35.71" style="enable-background:new 0 0 35.71 35.71;" xml:space="preserve">
<style type="text/css">
	.st0{fill:#1C4589;}
	.st1{fill:#119B8E;}
</style>
<g>
	<path class="st0" d="M17.86,0c-0.84,0-1.66,0.08-2.47,0.19c0.48,0.67,0.78,1.49,0.78,2.38c0,2.1-1.59,3.81-3.63,4.05h1.08h5.3
		c4.52,0,8.19,3.66,8.19,8.19h-9.23v10.76c0,4.08-2.46,7.58-5.97,9.11c1.86,0.66,3.86,1.04,5.95,1.04c9.86,0,17.86-7.99,17.86-17.86
		C35.71,7.99,27.72,0,17.86,0z"/>
	<path class="st1" d="M7.87,10.61c0-2.15,1.73-3.91,3.86-3.98C9.77,6.47,8.2,4.93,8.01,2.97C3.19,6.16,0,11.64,0,17.86
		c0,6.16,3.12,11.6,7.87,14.81V15.64V10.61z"/>
</g>
</svg>
