<?xml version="1.0" encoding="UTF-8"?>
<svg id="Layer_1" xmlns="http://www.w3.org/2000/svg" version="1.1" viewBox="0 0 48.1 48.3">
  <!-- Generator: Adobe Illustrator 29.4.0, SVG Export Plug-In . SVG Version: 2.1.0 Build 152)  -->
  <g id="Group_1121">
    <path id="Path_799" d="M30.74,9.6l-3.39-1.8-.59,2.19.96,6.58,2.73,1.67,4.14-2.07,2.39-4.69-6.25-1.89" fill="#ef204d" fill-rule="evenodd"/>
    <path id="Path_800" d="M36.8,10.06l-2.3-1.54-5.27-1.43-.96.95,2.04,1.69,6.42,1.26.07-.94" fill="#e21840" fill-rule="evenodd"/>
    <path id="Path_801" d="M15.7,10.56l-3.83-.06.47,2.22,3.85,5.42,3.19.24,2.75-3.72v-5.27s-6.43,1.16-6.43,1.16" fill="#ef204d" fill-rule="evenodd"/>
    <path id="Path_802" d="M21.31,8.22l-2.75-.33-5.35,1.13-.42,1.29,2.59.58,6.29-1.8-.36-.87" fill="#e21840" fill-rule="evenodd"/>
    <path id="Path_803" d="M22.79,6.81l-4.27-.97v2.59l3.02,6.97,3.51,1.03,3.94-3.51,1.24-5.89-7.45-.22" fill="#ef204d" fill-rule="evenodd"/>
    <path id="Path_804" d="M29.61,5.51l-3-1.01h-6.24l-.77,1.34,2.76,1.26,7.45-.53-.2-1.05" fill="#e21840" fill-rule="evenodd"/>
    <path id="Path_805" d="M14.91,18.42l9.56,25.5,1.35-1.84,3.94-11.02,4.65-12.96-19.5.32" fill="#d858a3" fill-rule="evenodd"/>
    <path id="Path_806" d="M25.35,18.1v-1c.6-.17,1.16-.44,1.66-.81.35.63.8,1.2,1.34,1.69-.97.06-1.98.1-3,.12ZM31.49,24.56h-.02c-.04.06-3.47,6.83-10.4,10.16-.61-1.58-1.26-3.35-1.95-5.3-.15-.42-.3-.83-.44-1.25,3.22-1.23,6.19-3.02,8.79-5.28,1.18-1.01,2.28-2.13,3.26-3.34.93-.08,1.77-.16,2.5-.24-.45,1.38-1.05,3.21-1.74,5.26ZM24.47,42.4c-.68-1.22-1.29-2.49-1.82-3.78-.3-.7-.61-1.46-.94-2.29,2.97-1.45,5.61-3.48,7.78-5.97-1.2,3.33-2.27,6.11-3.19,8.26-.53,1.3-1.14,2.56-1.82,3.79h0ZM24.27,19.84c1.37,0,2.73-.05,4.01-.12-.51.54-1.17,1.19-1.98,1.9-2.42,2.11-5.19,3.77-8.18,4.92-.97-2.82-1.82-5.41-2.41-7.21,2.84.33,5.7.5,8.56.52h0ZM21.79,16.35c.54.4,1.17.68,1.83.81v.94c-1.1-.01-2.18-.05-3.2-.11.55-.47,1.01-1.02,1.37-1.64h0ZM13.29,11.39c-.03-.15-.04-.3-.05-.45.83.16,1.67.23,2.52.23.19,0,.39,0,.6-.01,1.16.65,2.02,1.72,2.39,3,.23.95.21,1.95-.04,2.89-.09.04-.19.06-.29.08-.09.02-.17.02-.26.02-.84,0-1.93-.69-2.9-1.84-.96-1.12-1.64-2.46-1.97-3.91h0ZM16.97,8.9c.22-.04.44-.08.67-.11.02.17.05.34.09.52-.98.12-1.97.15-2.96.09.72-.21,1.45-.37,2.2-.49h0ZM28.6,5.64c.25.1.47.25.65.45-2.23.27-4.48.21-6.69-.18-.61-.11-1.22-.27-1.82-.47,1.18-.25,2.39-.35,3.59-.3,1.62,0,3.26.06,4.26.5h0ZM30.65,11.16c.74.93,1.11,2.1,1.05,3.29-.09.97-.43,1.91-.97,2.72h-.06c-.08,0-.16,0-.23-.02-.74-.11-1.51-.88-2.1-2.06,1-1.16,1.79-2.49,2.32-3.93h0ZM27.23,11.8c-.06-1.4-.57-2.74-1.44-3.83.2,0,.4,0,.6,0,1.09,0,2.18-.07,3.26-.19-.16,1.82-.78,3.58-1.8,5.1-.28.43-.6.84-.96,1.22.24-.74.36-1.52.33-2.3h0ZM20.98,12.91c-1.03-1.64-1.7-3.74-1.7-5.35,0-.27.02-.54.07-.8,1.24.51,2.55.85,3.89,1.01,1.44,1.27,2.21,2.64,2.26,4.08,0,1.32-.45,2.61-1.25,3.66-.57-.05-1.1-.27-1.54-.63-.69-.55-1.27-1.21-1.73-1.97h0ZM35.15,9.86s.09.06.14.09c-1.38-.09-2.75-.31-4.09-.68.03-.14.05-.28.08-.42.15.02.3.04.44.07,1.34.21,2.68.47,3.43.94h0ZM33.68,15.29c-.15.17-.3.34-.45.49.1-.39.17-.79.2-1.19.08-1.1-.13-2.19-.62-3.18.92.16,1.85.26,2.79.3-.36,1.32-1.02,2.55-1.92,3.58h0ZM37.37,11.63c.5-3.22-2.17-3.92-5.39-4.42-.21-.03-.41-.06-.61-.09-.24-3.4-3.36-3.71-7.03-3.71s-6.51.3-6.77,3.64c-.29.05-.59.09-.9.15-3.21.56-5.65,1.28-5.09,4.49.5,2.25,1.7,4.28,3.42,5.81-1.11-.14-1.77-.25-1.77-.25,0,0,8.64,27.65,11.24,27.65s11.24-27.65,11.24-27.65c0,0-.67.1-1.78.24,1.76-1.5,3.15-3.91,3.45-5.85" fill="#070505" fill-rule="evenodd"/>
  </g>
</svg>