<?xml version="1.0" encoding="utf-8"?>
<!-- Uploaded to: SVG Repo, www.svgrepo.com, Generator: SVG Repo Mixer Tools -->
<svg width="800px" height="800px" viewBox="0 -4.62 110.514 110.514" xmlns="http://www.w3.org/2000/svg">
  <g id="Group_1131" data-name="Group 1131" transform="translate(-1571.828 -14271.89)">
    <path id="Path_763" data-name="Path 763" d="M-3574.294,2510.821h-10.038v-5.72h10.038v5.72" transform="translate(5186 11845)" fill="#ef204d" fill-rule="evenodd"/>
    <path id="Path_764" data-name="Path 764" d="M-3576.075,2512.386l-7.339.647-3.777,13.49,14.569-.108-3.453-14.03" transform="translate(5186 11845)" fill="#e21840" fill-rule="evenodd"/>
    <path id="Path_765" data-name="Path 765" d="M-3506.75,2525.8l-.577-9.065-12.158-4.388-5.686-6.62-7.913,2.519-7.051-1.295-3.239,3.814-4.749,2.375.577,5.613v7.338l40.8-.291" transform="translate(5186 11845)" fill="#f6f6f5" fill-rule="evenodd"/>
    <path id="Path_766" data-name="Path 766" d="M-3512.076,2481.627l-7.123-11.224-12.991-4.749-15.608,7.987-7.663,24.606,1.15,7.555,10.4,3.13h23.1l11.116-3.13,1.619-4.75-3.994-19.426" transform="translate(5186 11845)" fill="#e5e5e3" fill-rule="evenodd"/>
    <path id="Path_767" data-name="Path 767" d="M-3531.633,2483.57l-12.388,3.831-2.482,4.338,4.964,9.314,8.742,7.879,12.52-9.389,2.4-12.142-13.76-3.831" transform="translate(5186 11845)" fill="#e7aca1" fill-rule="evenodd"/>
    <path id="Path_768" data-name="Path 768" d="M-3519.343,2483.283l-5.181-5.757-9.207-1.3-8.938,2.735-2.718,9.93,9.929-5.325,6.476,1.439s7.912,2.446,10.215,2.392-.576-4.118-.576-4.118" transform="translate(5186 11845)" fill="#f2c727" fill-rule="evenodd"/>
    <path id="Path_770" data-name="Path 770" d="M-3571.569,2471.232l-11.622,5.809-12.631,1.771-.634,7.705,10.486,16.044,11.116,1.009,8.843-8.463,2.779-18.066-8.337-5.809" transform="translate(5186 11845)" fill="#e7aca1" fill-rule="evenodd"/>
    <path id="Path_771" data-name="Path 771" d="M-3543.435,2433.065l-3.426-2.732-3.329-.257-4.185,2-.826-.571-3.045-1.426-2.851.159-3.744,2.187-1.113,3.493.321,3.362,3.551,5.231,3.363,3.68,4.63,3.076,2.473-2.035,6-5.292,2.947-6.852-.766-4.02" transform="translate(5186 11845)" fill="#ef204d" fill-rule="evenodd"/>
    <path id="Path_772" data-name="Path 772" d="M-3560.578,2431.489a4.134,4.134,0,0,1,2.978,1.254l3.289,3.357,3.291-3.357a4.131,4.131,0,0,1,2.975-1.254,4.176,4.176,0,0,1,4.169,4.17c0,2.7-2.1,6.134-5.916,9.658a44.734,44.734,0,0,1-4.519,3.632,44.843,44.843,0,0,1-4.52-3.632c-3.811-3.524-5.911-6.954-5.911-9.658A4.174,4.174,0,0,1-3560.578,2431.489Zm6.267,22.964s15.035-8.772,15.035-18.794a8.768,8.768,0,0,0-8.769-8.769,8.734,8.734,0,0,0-6.266,2.63,8.736,8.736,0,0,0-6.267-2.63,8.768,8.768,0,0,0-8.768,8.769c0,10.022,15.035,18.794,15.035,18.794" transform="translate(5186 11845)" fill="#070505" fill-rule="evenodd"/>
    <path id="Path_773" data-name="Path 773" d="M-3508.261,2523.564H-3545.1v-5.37a8.349,8.349,0,0,0-.688-3.332c4.011-1.707,6.293-3.414,7.319-5.431l.007-.006v-.008c.061-.12.108-.222.142-.295l.168-.386a11.123,11.123,0,0,0,6.017,2.335,11.13,11.13,0,0,0,6.013-2.335l.169.379c.031.067.068.154.118.263l.014.02.013.027c1.146,2.273,3.892,4.141,8.887,6.064a73.436,73.436,0,0,0,7.139,2.307l.041.013a2.253,2.253,0,0,1,1.484,2.131Zm-63.028,0-2.017-10.746,2.657-7.062c1.5,2.2,4.587,4.12,9.815,6.131a88.962,88.962,0,0,0,8.569,2.765l.086.02a3.717,3.717,0,0,1,2.471,3.522v5.37Zm-12.007,0,1.724-9.215h3.869l1.725,9.215Zm-26.273,0v-5.37a3.716,3.716,0,0,1,2.462-3.514l.115-.035c3.9-1.059,6.8-2.084,8.55-2.752,5.231-2.017,8.313-3.939,9.811-6.137l2.661,7.062-2.014,10.746Zm15.123-43.683a29.9,29.9,0,0,0,3.865.256,31.541,31.541,0,0,0,13.505-3.13c3.278-1.546,5.274-2.185,6.624-2.185,2.178,0,2.683,1.672,4.195,3.939a5.9,5.9,0,0,0,1.463,1.416,21.773,21.773,0,0,1,.122,2.32c0,4.669-2.145,9.862-5.888,14.253a20.72,20.72,0,0,1-6.585,5.37h-4.984a20.687,20.687,0,0,1-6.584-5.37c-3.743-4.391-5.891-9.584-5.891-14.253A21.483,21.483,0,0,1-3594.446,2479.881Zm-.924-8.547c2.745-6.625,4.735-8.074,5.106-8.3a20.83,20.83,0,0,1,10.887-3.114c4.844,0,8.331,1.741,9.262,2.584a18.007,18.007,0,0,1,5.786,10.786,8.464,8.464,0,0,0-.99-1.094,7.3,7.3,0,0,0-5.133-1.984c-2.139,0-4.624.763-8.584,2.625a26.973,26.973,0,0,1-11.545,2.692,24.023,24.023,0,0,1-6.091-.777C-3596.308,2473.715-3595.869,2472.541-3595.37,2471.334Zm12.027,35.392h7.413l-1.14,3.023h-5.136Zm30.6-2.725c-.27-4.181-.819-21.248,7.257-30.192,3.35-3.71,7.684-5.51,13.248-5.51s9.923,1.808,13.295,5.516c8.1,8.911,7.656,25.97,7.414,30.16a14.747,14.747,0,0,1-3.562,1.53,39.284,39.284,0,0,1-6.651,1.35l-.017-2.152c3.262-3.832,5.757-8.964,5.757-14.206,0-10.481-7.231-17.4-16.141-17.4s-16.146,6.922-16.146,17.4c0,5.242,2.493,10.381,5.758,14.206l-.017,2.159a40.278,40.278,0,0,1-6.634-1.336A14.632,14.632,0,0,1-3552.739,2504Zm10.134-19.284a11.7,11.7,0,0,1,2.371-3.664,11.084,11.084,0,0,1,8.095-3.358c.169,0,.344.006.512.014A20.2,20.2,0,0,1-3542.6,2484.717Zm13.028-2.382a24.393,24.393,0,0,0,2.74-3.365,10.681,10.681,0,0,1,2.789,2.083,11.736,11.736,0,0,1,2.169,3.2A32.23,32.23,0,0,1-3529.577,2482.335Zm-9.435,19.4c-2.966-3.481-4.669-7.576-4.669-11.238,0-.3.014-.6.028-.9a23.946,23.946,0,0,0,10.151-3.953,35.743,35.743,0,0,0,12.833,3.36c.044.485.064.984.064,1.49,0,3.662-1.7,7.757-4.668,11.238-2.786,3.265-5.692,4.734-6.866,4.734S-3536.227,2505-3539.012,2501.735Zm30.677,11.689-.182-.061a68.772,68.772,0,0,1-6.749-2.164c-.479-.19-.921-.365-1.332-.54a34.147,34.147,0,0,0,3.751-1.039c3.656-1.26,4.991-2.617,5.314-3l.452-.548.072-.708c.091-.93,2.087-22.953-8.516-34.637-4.233-4.666-9.855-7.031-16.709-7.031s-12.452,2.365-16.664,7.031c-10.56,11.691-8.442,33.748-8.347,34.685l.071.7.455.541c.479.579,2.584,2.616,9.019,4.019-.385.155-.8.325-1.234.494a8.534,8.534,0,0,0-1.843-.877l-.222-.068a84.339,84.339,0,0,1-8.175-2.631c-5.886-2.26-7.42-3.892-7.812-4.668-.013-.027-.02-.055-.034-.088l-.026-3.117c3.956-4.639,6.981-10.866,6.981-17.22,0,0,3.69-13.766-6.961-23.407-1.952-1.766-6.6-3.773-12.351-3.773a25.47,25.47,0,0,0-13.265,3.773c-5.635,3.4-9.736,18.423-9.736,18.423a19.429,19.429,0,0,0,3.42,1.376,26.011,26.011,0,0,0-.25,3.608c0,6.354,3.022,12.581,6.975,17.22l-.021,3.117c-.013.033-.023.061-.037.088-.391.776-1.922,2.408-7.807,4.675-1.66.633-4.419,1.6-8.145,2.616l-.257.076a8.324,8.324,0,0,0-5.672,7.905v9.969h110.514v-8.223a6.851,6.851,0,0,0-4.677-6.516" transform="translate(5186 11845)" fill="#070505" fill-rule="evenodd"/>
  </g>
</svg>